<svg xmlns="http://www.w3.org/2000/svg" viewBox="0 0 980 430" role="img" aria-labelledby="title">
  <title id="title">Hero Rush</title>
  <defs>
    <linearGradient id="whiteFace" x1="0" y1="0" x2="0" y2="1">
      <stop offset="0" stop-color="#ffffff"/>
      <stop offset="0.62" stop-color="#f5f7f8"/>
      <stop offset="1" stop-color="#c9cfd3"/>
    </linearGradient>
    <linearGradient id="rushFace" x1="0" y1="0" x2="0" y2="1">
      <stop offset="0" stop-color="#f5ff24"/>
      <stop offset="0.52" stop-color="#b7ec12"/>
      <stop offset="1" stop-color="#65bc0d"/>
    </linearGradient>
    <filter id="shadow" x="-10%" y="-10%" width="120%" height="130%">
      <feDropShadow dx="0" dy="14" stdDeviation="0" flood-color="#000000" flood-opacity="0.92"/>
      <feDropShadow dx="8" dy="24" stdDeviation="0" flood-color="#8d9498" flood-opacity="0.65"/>
    </filter>
  </defs>
  <rect width="980" height="430" fill="none"/>
  <g filter="url(#shadow)">
    <path fill="#050505" d="M82 110 202 158 210 88 385 75 393 95 524 84 680 89 728 132 788 92 906 110 832 222 910 250 801 281 724 344 555 346 486 325 410 346 240 342 210 280 74 250 166 223z"/>
  </g>
  <g transform="rotate(-12 154 225)">
    <rect x="117" y="180" width="28" height="120" rx="8" fill="#f5f7f8" stroke="#141414" stroke-width="10"/>
    <rect x="96" y="246" width="110" height="28" rx="6" fill="#ffcf28"/>
    <rect x="70" y="270" width="38" height="32" rx="14" fill="#dd8a13"/>
    <circle cx="91" cy="286" r="13" fill="#98f233"/>
  </g>
  <g transform="translate(0 3)">
    <path fill="#7fc908" d="M82 315 178 296 128 342zM905 315l-96-19 50 46z"/>
    <path fill="#96dd10" d="M104 365 188 315 146 388zM884 365l-84-50 42 73z"/>
  </g>
  <g transform="translate(750 150)">
    <path d="M22 20 156 50 138 158 18 125z" fill="#9a5d25" stroke="#cfd5dc" stroke-width="12"/>
    <path d="M62 30v100M104 40v94" stroke="#5e371b" stroke-width="4" opacity=".55"/>
    <circle cx="105" cy="92" r="25" fill="#9ea5af" stroke="#d9dde1" stroke-width="6"/>
    <circle cx="96" cy="82" r="10" fill="#f3f6f8" opacity=".55"/>
  </g>
  <g font-family="Arial Black, Impact, system-ui, sans-serif" font-weight="900" text-anchor="middle">
    <text x="490" y="174" font-size="150" letter-spacing="1" stroke="#050505" stroke-width="34" paint-order="stroke" fill="url(#whiteFace)">HERO</text>
    <text x="490" y="174" font-size="150" letter-spacing="1" fill="url(#whiteFace)">HERO</text>
    <text x="490" y="335" font-size="176" letter-spacing="1" stroke="#050505" stroke-width="36" paint-order="stroke" fill="url(#rushFace)">RUSH</text>
    <text x="490" y="335" font-size="176" letter-spacing="1" fill="url(#rushFace)">RUSH</text>
  </g>
</svg>
